<svg xmlns="http://www.w3.org/2000/svg" viewBox="0 0 755.2 240" id="logo">
<path d="M420.9,40h16h16v48v48h16h16v-16v-16h16h16v48v48h-16h-16v-16v-16h-32h-32v-64V40z M538.2,98.9v58.9h16h16V98.9V40h-16 h-16V98.9z M538.2,184v16h16h16v-16v-16h-16h-16V184z M164.9,40h-16h-16v58.9v58.9h16h16V98.9V40z M164.9,168h-16h-16v16v16h16h16 v-16V168z M112,40H96H80v58.9v58.9h16h16V98.9V40z M112,168H96H80v16v16h16h16v-16V168z M675.2,40h-16h-16v58.9v58.9h16h16V98.9 V40z M675.2,168h-16h-16v16v16h16h16v-16V168z M622.2,40h-16h-16v58.9v58.9h16h16V98.9V40z M622.2,168h-16h-16v16v16h16h16v-16 V168z M303.2,104v64h32h32v16v16h16h16v-48v-48h-16h-16v16v16h-16h-16V88V40h-16h-16V104z M186.2,104v64h32h32v16v16h16h16v-48 v-48h-16h-16v16v16h-16h-16V88V40h-16h-16V104z"></path>
</svg>
